<svg width="50px" height="50px" viewBox="0 0 24 24" fill="none" xmlns="http://www.w3.org/2000/svg">
<path d="M7.47004 12.2808L7.55415 12.3535C7.84777 12.5713 8.26443 12.5471 8.5307 12.2808L11.2501 9.56152L11.2504 16.2512L11.2572 16.353C11.3069 16.7191 11.6207 17.0012 12.0004 17.0012L12.1021 16.9944C12.4682 16.9447 12.7504 16.6309 12.7504 16.2512L12.7501 9.55952L15.4708 12.2814L15.5549 12.3541C15.8484 12.572 16.2651 12.5479 16.5314 12.2817C16.8244 11.9888 16.8245 11.5139 16.5316 11.221L12.5316 7.21947L12.4475 7.14682C12.1539 6.92889 11.7372 6.95306 11.4709 7.21936L7.47004 11.2202L7.39742 11.3043C7.17956 11.5979 7.20377 12.0146 7.47004 12.2808Z" fill="#595c78"/>

</svg>
